<mxfile host="Electron" agent="Mozilla/5.0 (Windows NT 10.0; Win64; x64) AppleWebKit/537.36 (KHTML, like Gecko) draw.io/28.1.2 Chrome/138.0.7204.243 Electron/37.4.0 Safari/537.36" version="28.1.2">
  <diagram name="Page-1" id="0Yj06QEPcL5slrUYqU5O">
    <mxGraphModel dx="1042" dy="674" grid="1" gridSize="10" guides="1" tooltips="1" connect="1" arrows="1" fold="1" page="1" pageScale="1" pageWidth="3300" pageHeight="4681" math="0" shadow="0">
      <root>
        <mxCell id="0" />
        <mxCell id="1" parent="0" />
        <mxCell id="jBc_BUYW1B68j-BPx_Yp-10" value="" style="edgeStyle=orthogonalEdgeStyle;rounded=0;orthogonalLoop=1;jettySize=auto;html=1;" parent="1" source="jBc_BUYW1B68j-BPx_Yp-2" target="jBc_BUYW1B68j-BPx_Yp-9" edge="1">
          <mxGeometry relative="1" as="geometry" />
        </mxCell>
        <mxCell id="jBc_BUYW1B68j-BPx_Yp-2" value="Star" style="ellipse;whiteSpace=wrap;html=1;" parent="1" vertex="1">
          <mxGeometry x="525" y="40" width="120" height="80" as="geometry" />
        </mxCell>
        <mxCell id="jBc_BUYW1B68j-BPx_Yp-12" value="" style="edgeStyle=orthogonalEdgeStyle;rounded=0;orthogonalLoop=1;jettySize=auto;html=1;" parent="1" source="jBc_BUYW1B68j-BPx_Yp-9" target="jBc_BUYW1B68j-BPx_Yp-11" edge="1">
          <mxGeometry relative="1" as="geometry" />
        </mxCell>
        <mxCell id="jBc_BUYW1B68j-BPx_Yp-9" value="Output &quot;Pendaftaran lomba&lt;div&gt;&amp;nbsp;tahun baru&quot;&lt;div&gt;1.Login&lt;/div&gt;&lt;div&gt;2.Register&lt;/div&gt;&lt;div&gt;3.Keluar&lt;/div&gt;&lt;/div&gt;" style="shape=parallelogram;perimeter=parallelogramPerimeter;whiteSpace=wrap;html=1;fixedSize=1;" parent="1" vertex="1">
          <mxGeometry x="492.5" y="150" width="185" height="100" as="geometry" />
        </mxCell>
        <mxCell id="jBc_BUYW1B68j-BPx_Yp-14" value="" style="edgeStyle=orthogonalEdgeStyle;rounded=0;orthogonalLoop=1;jettySize=auto;html=1;" parent="1" source="jBc_BUYW1B68j-BPx_Yp-11" target="jBc_BUYW1B68j-BPx_Yp-13" edge="1">
          <mxGeometry relative="1" as="geometry" />
        </mxCell>
        <mxCell id="jBc_BUYW1B68j-BPx_Yp-11" value="Input&lt;div&gt;1.Login&lt;/div&gt;&lt;div&gt;2. Register&lt;/div&gt;&lt;div&gt;3.Keluar&lt;/div&gt;" style="shape=parallelogram;perimeter=parallelogramPerimeter;whiteSpace=wrap;html=1;fixedSize=1;" parent="1" vertex="1">
          <mxGeometry x="525" y="300" width="120" height="60" as="geometry" />
        </mxCell>
        <mxCell id="jBc_BUYW1B68j-BPx_Yp-37" value="" style="edgeStyle=orthogonalEdgeStyle;rounded=0;orthogonalLoop=1;jettySize=auto;html=1;" parent="1" source="jBc_BUYW1B68j-BPx_Yp-13" target="jBc_BUYW1B68j-BPx_Yp-36" edge="1">
          <mxGeometry relative="1" as="geometry" />
        </mxCell>
        <mxCell id="jBc_BUYW1B68j-BPx_Yp-44" value="False" style="edgeLabel;html=1;align=center;verticalAlign=middle;resizable=0;points=[];" parent="jBc_BUYW1B68j-BPx_Yp-37" vertex="1" connectable="0">
          <mxGeometry x="0.0961" relative="1" as="geometry">
            <mxPoint as="offset" />
          </mxGeometry>
        </mxCell>
        <mxCell id="jBc_BUYW1B68j-BPx_Yp-13" value="Login" style="rhombus;whiteSpace=wrap;html=1;" parent="1" vertex="1">
          <mxGeometry x="545" y="430" width="80" height="80" as="geometry" />
        </mxCell>
        <mxCell id="jBc_BUYW1B68j-BPx_Yp-41" value="" style="edgeStyle=orthogonalEdgeStyle;rounded=0;orthogonalLoop=1;jettySize=auto;html=1;" parent="1" source="jBc_BUYW1B68j-BPx_Yp-36" target="jBc_BUYW1B68j-BPx_Yp-40" edge="1">
          <mxGeometry relative="1" as="geometry" />
        </mxCell>
        <mxCell id="jBc_BUYW1B68j-BPx_Yp-46" value="True" style="edgeLabel;html=1;align=center;verticalAlign=middle;resizable=0;points=[];" parent="jBc_BUYW1B68j-BPx_Yp-41" vertex="1" connectable="0">
          <mxGeometry x="-0.2286" relative="1" as="geometry">
            <mxPoint as="offset" />
          </mxGeometry>
        </mxCell>
        <mxCell id="jBc_BUYW1B68j-BPx_Yp-75" value="" style="edgeStyle=orthogonalEdgeStyle;rounded=0;orthogonalLoop=1;jettySize=auto;html=1;" parent="1" source="jBc_BUYW1B68j-BPx_Yp-36" target="jBc_BUYW1B68j-BPx_Yp-74" edge="1">
          <mxGeometry relative="1" as="geometry" />
        </mxCell>
        <mxCell id="9sZh_myKUcKWGxBM8dOH-1" value="False" style="edgeLabel;html=1;align=center;verticalAlign=middle;resizable=0;points=[];" parent="jBc_BUYW1B68j-BPx_Yp-75" vertex="1" connectable="0">
          <mxGeometry x="-0.704" y="-2" relative="1" as="geometry">
            <mxPoint as="offset" />
          </mxGeometry>
        </mxCell>
        <mxCell id="jBc_BUYW1B68j-BPx_Yp-36" value="Register" style="rhombus;whiteSpace=wrap;html=1;" parent="1" vertex="1">
          <mxGeometry x="385" y="430" width="80" height="80" as="geometry" />
        </mxCell>
        <mxCell id="jBc_BUYW1B68j-BPx_Yp-48" value="" style="edgeStyle=orthogonalEdgeStyle;rounded=0;orthogonalLoop=1;jettySize=auto;html=1;" parent="1" source="jBc_BUYW1B68j-BPx_Yp-40" target="jBc_BUYW1B68j-BPx_Yp-47" edge="1">
          <mxGeometry relative="1" as="geometry" />
        </mxCell>
        <mxCell id="jBc_BUYW1B68j-BPx_Yp-40" value="Input&lt;div&gt;User name baru&lt;/div&gt;&lt;div&gt;Password baru&lt;/div&gt;" style="shape=parallelogram;perimeter=parallelogramPerimeter;whiteSpace=wrap;html=1;fixedSize=1;" parent="1" vertex="1">
          <mxGeometry x="205" y="440" width="120" height="60" as="geometry" />
        </mxCell>
        <mxCell id="jBc_BUYW1B68j-BPx_Yp-47" value="anda telah membuat akun peserta" style="whiteSpace=wrap;html=1;" parent="1" vertex="1">
          <mxGeometry x="41" y="440" width="120" height="60" as="geometry" />
        </mxCell>
        <mxCell id="jBc_BUYW1B68j-BPx_Yp-49" value="" style="endArrow=classic;html=1;rounded=0;exitX=0.5;exitY=0;exitDx=0;exitDy=0;entryX=0;entryY=0.5;entryDx=0;entryDy=0;" parent="1" source="jBc_BUYW1B68j-BPx_Yp-47" target="jBc_BUYW1B68j-BPx_Yp-11" edge="1">
          <mxGeometry width="50" height="50" relative="1" as="geometry">
            <mxPoint x="131" y="490" as="sourcePoint" />
            <mxPoint x="181" y="440" as="targetPoint" />
            <Array as="points">
              <mxPoint x="101" y="330" />
            </Array>
          </mxGeometry>
        </mxCell>
        <mxCell id="jBc_BUYW1B68j-BPx_Yp-53" value="Login sebagai admin" style="rhombus;whiteSpace=wrap;html=1;" parent="1" vertex="1">
          <mxGeometry x="700" y="640" width="105" height="100" as="geometry" />
        </mxCell>
        <mxCell id="jBc_BUYW1B68j-BPx_Yp-59" value="Output&lt;div&gt;1.melihat lomba&lt;/div&gt;&lt;div&gt;2.menambah lomba&lt;/div&gt;&lt;div&gt;3.hapus lomba&lt;/div&gt;&lt;div&gt;4.lihat peserta&lt;/div&gt;&lt;div&gt;5.ubah lomba&lt;/div&gt;&lt;div&gt;6.logout&lt;/div&gt;" style="shape=parallelogram;perimeter=parallelogramPerimeter;whiteSpace=wrap;html=1;fixedSize=1;" parent="1" vertex="1">
          <mxGeometry x="971" y="635" width="161.5" height="110" as="geometry" />
        </mxCell>
        <mxCell id="jBc_BUYW1B68j-BPx_Yp-65" value="&lt;div&gt;Output&lt;/div&gt;1.lihat lomba&lt;div&gt;2.daftar lomba&lt;/div&gt;&lt;div&gt;3.melihat lomba yang diikuti&lt;/div&gt;&lt;div&gt;4.logout&lt;/div&gt;" style="shape=parallelogram;perimeter=parallelogramPerimeter;whiteSpace=wrap;html=1;fixedSize=1;" parent="1" vertex="1">
          <mxGeometry x="480" y="630" width="174" height="100" as="geometry" />
        </mxCell>
        <mxCell id="jBc_BUYW1B68j-BPx_Yp-69" value="&lt;div&gt;End&lt;/div&gt;" style="ellipse;whiteSpace=wrap;html=1;" parent="1" vertex="1">
          <mxGeometry x="525" y="865" width="120" height="80" as="geometry" />
        </mxCell>
        <mxCell id="jBc_BUYW1B68j-BPx_Yp-70" value="" style="endArrow=classic;html=1;rounded=0;exitX=0;exitY=0.5;exitDx=0;exitDy=0;entryX=0;entryY=0.5;entryDx=0;entryDy=0;" parent="1" source="jBc_BUYW1B68j-BPx_Yp-74" target="jBc_BUYW1B68j-BPx_Yp-69" edge="1">
          <mxGeometry width="50" height="50" relative="1" as="geometry">
            <mxPoint x="365" y="570" as="sourcePoint" />
            <mxPoint x="661" y="810" as="targetPoint" />
            <Array as="points">
              <mxPoint x="311" y="570" />
              <mxPoint x="311" y="630" />
              <mxPoint x="311" y="730" />
              <mxPoint x="311" y="905" />
            </Array>
          </mxGeometry>
        </mxCell>
        <mxCell id="jBc_BUYW1B68j-BPx_Yp-73" value="" style="endArrow=classic;html=1;rounded=0;exitX=0.5;exitY=1;exitDx=0;exitDy=0;entryX=1;entryY=0.5;entryDx=0;entryDy=0;" parent="1" source="jBc_BUYW1B68j-BPx_Yp-59" target="jBc_BUYW1B68j-BPx_Yp-69" edge="1">
          <mxGeometry width="50" height="50" relative="1" as="geometry">
            <mxPoint x="851" y="880" as="sourcePoint" />
            <mxPoint x="901" y="830" as="targetPoint" />
            <Array as="points">
              <mxPoint x="1051" y="905" />
            </Array>
          </mxGeometry>
        </mxCell>
        <mxCell id="jBc_BUYW1B68j-BPx_Yp-74" value="Input&lt;div&gt;Tidak valid atau Keluar&lt;/div&gt;" style="shape=parallelogram;perimeter=parallelogramPerimeter;whiteSpace=wrap;html=1;fixedSize=1;" parent="1" vertex="1">
          <mxGeometry x="365" y="540" width="120" height="60" as="geometry" />
        </mxCell>
        <mxCell id="9sZh_myKUcKWGxBM8dOH-2" value="" style="endArrow=classic;html=1;rounded=0;exitX=1;exitY=0.5;exitDx=0;exitDy=0;entryX=0.5;entryY=0;entryDx=0;entryDy=0;" parent="1" source="jBc_BUYW1B68j-BPx_Yp-13" target="jBc_BUYW1B68j-BPx_Yp-53" edge="1">
          <mxGeometry width="50" height="50" relative="1" as="geometry">
            <mxPoint x="510" y="570" as="sourcePoint" />
            <mxPoint x="560" y="520" as="targetPoint" />
            <Array as="points">
              <mxPoint x="745" y="470" />
            </Array>
          </mxGeometry>
        </mxCell>
        <mxCell id="DFoWq1lY7I_5VfrLoz8W-2" value="True" style="edgeLabel;html=1;align=center;verticalAlign=middle;resizable=0;points=[];" parent="9sZh_myKUcKWGxBM8dOH-2" vertex="1" connectable="0">
          <mxGeometry x="0.0788" y="2" relative="1" as="geometry">
            <mxPoint as="offset" />
          </mxGeometry>
        </mxCell>
        <mxCell id="9sZh_myKUcKWGxBM8dOH-3" value="" style="endArrow=classic;html=1;rounded=0;exitX=0;exitY=0.5;exitDx=0;exitDy=0;entryX=0.923;entryY=0.594;entryDx=0;entryDy=0;entryPerimeter=0;" parent="1" source="jBc_BUYW1B68j-BPx_Yp-53" target="jBc_BUYW1B68j-BPx_Yp-65" edge="1">
          <mxGeometry width="50" height="50" relative="1" as="geometry">
            <mxPoint x="590" y="770" as="sourcePoint" />
            <mxPoint x="640" y="720" as="targetPoint" />
          </mxGeometry>
        </mxCell>
        <mxCell id="9sZh_myKUcKWGxBM8dOH-8" value="False" style="edgeLabel;html=1;align=center;verticalAlign=middle;resizable=0;points=[];" parent="9sZh_myKUcKWGxBM8dOH-3" vertex="1" connectable="0">
          <mxGeometry x="-0.1256" y="3" relative="1" as="geometry">
            <mxPoint as="offset" />
          </mxGeometry>
        </mxCell>
        <mxCell id="9sZh_myKUcKWGxBM8dOH-4" value="" style="endArrow=classic;html=1;rounded=0;exitX=1;exitY=0.5;exitDx=0;exitDy=0;entryX=0;entryY=0.5;entryDx=0;entryDy=0;" parent="1" source="jBc_BUYW1B68j-BPx_Yp-53" target="jBc_BUYW1B68j-BPx_Yp-59" edge="1">
          <mxGeometry width="50" height="50" relative="1" as="geometry">
            <mxPoint x="840" y="750" as="sourcePoint" />
            <mxPoint x="890" y="700" as="targetPoint" />
          </mxGeometry>
        </mxCell>
        <mxCell id="9sZh_myKUcKWGxBM8dOH-7" value="True" style="edgeLabel;html=1;align=center;verticalAlign=middle;resizable=0;points=[];" parent="9sZh_myKUcKWGxBM8dOH-4" vertex="1" connectable="0">
          <mxGeometry x="-0.1477" y="-2" relative="1" as="geometry">
            <mxPoint as="offset" />
          </mxGeometry>
        </mxCell>
        <mxCell id="9sZh_myKUcKWGxBM8dOH-6" value="" style="endArrow=classic;html=1;rounded=0;exitX=0.462;exitY=1.036;exitDx=0;exitDy=0;exitPerimeter=0;entryX=0.35;entryY=0.063;entryDx=0;entryDy=0;entryPerimeter=0;" parent="1" source="jBc_BUYW1B68j-BPx_Yp-65" target="jBc_BUYW1B68j-BPx_Yp-69" edge="1">
          <mxGeometry width="50" height="50" relative="1" as="geometry">
            <mxPoint x="840" y="680" as="sourcePoint" />
            <mxPoint x="890" y="630" as="targetPoint" />
          </mxGeometry>
        </mxCell>
      </root>
    </mxGraphModel>
  </diagram>
</mxfile>
